<svg id="mermaid-svg" width="100%" xmlns="http://www.w3.org/2000/svg" class="classDiagram" style="max-width: 733.0234375px;" viewBox="0 0 733.0234375 396" role="graphics-document document" aria-roledescription="class" xmlns:xlink="http://www.w3.org/1999/xlink"><style xmlns="http://www.w3.org/1999/xhtml">@import url("https://cdnjs.cloudflare.com/ajax/libs/font-awesome/6.7.2/css/all.min.css");</style><style>#mermaid-svg{font-family:"trebuchet ms",verdana,arial,sans-serif;font-size:16px;fill:#333;}@keyframes edge-animation-frame{from{stroke-dashoffset:0;}}@keyframes dash{to{stroke-dashoffset:0;}}#mermaid-svg .edge-animation-slow{stroke-dasharray:9,5!important;stroke-dashoffset:900;animation:dash 50s linear infinite;stroke-linecap:round;}#mermaid-svg .edge-animation-fast{stroke-dasharray:9,5!important;stroke-dashoffset:900;animation:dash 20s linear infinite;stroke-linecap:round;}#mermaid-svg .error-icon{fill:#552222;}#mermaid-svg .error-text{fill:#552222;stroke:#552222;}#mermaid-svg .edge-thickness-normal{stroke-width:1px;}#mermaid-svg .edge-thickness-thick{stroke-width:3.5px;}#mermaid-svg .edge-pattern-solid{stroke-dasharray:0;}#mermaid-svg .edge-thickness-invisible{stroke-width:0;fill:none;}#mermaid-svg .edge-pattern-dashed{stroke-dasharray:3;}#mermaid-svg .edge-pattern-dotted{stroke-dasharray:2;}#mermaid-svg .marker{fill:#333333;stroke:#333333;}#mermaid-svg .marker.cross{stroke:#333333;}#mermaid-svg svg{font-family:"trebuchet ms",verdana,arial,sans-serif;font-size:16px;}#mermaid-svg p{margin:0;}#mermaid-svg g.classGroup text{fill:#9370DB;stroke:none;font-family:"trebuchet ms",verdana,arial,sans-serif;font-size:10px;}#mermaid-svg g.classGroup text .title{font-weight:bolder;}#mermaid-svg .nodeLabel,#mermaid-svg .edgeLabel{color:#131300;}#mermaid-svg .edgeLabel .label rect{fill:#ECECFF;}#mermaid-svg .label text{fill:#131300;}#mermaid-svg .labelBkg{background:#ECECFF;}#mermaid-svg .edgeLabel .label span{background:#ECECFF;}#mermaid-svg .classTitle{font-weight:bolder;}#mermaid-svg .node rect,#mermaid-svg .node circle,#mermaid-svg .node ellipse,#mermaid-svg .node polygon,#mermaid-svg .node path{fill:#ECECFF;stroke:#9370DB;stroke-width:1px;}#mermaid-svg .divider{stroke:#9370DB;stroke-width:1;}#mermaid-svg g.clickable{cursor:pointer;}#mermaid-svg g.classGroup rect{fill:#ECECFF;stroke:#9370DB;}#mermaid-svg g.classGroup line{stroke:#9370DB;stroke-width:1;}#mermaid-svg .classLabel .box{stroke:none;stroke-width:0;fill:#ECECFF;opacity:0.5;}#mermaid-svg .classLabel .label{fill:#9370DB;font-size:10px;}#mermaid-svg .relation{stroke:#333333;stroke-width:1;fill:none;}#mermaid-svg .dashed-line{stroke-dasharray:3;}#mermaid-svg .dotted-line{stroke-dasharray:1 2;}#mermaid-svg #compositionStart,#mermaid-svg .composition{fill:#333333!important;stroke:#333333!important;stroke-width:1;}#mermaid-svg #compositionEnd,#mermaid-svg .composition{fill:#333333!important;stroke:#333333!important;stroke-width:1;}#mermaid-svg #dependencyStart,#mermaid-svg .dependency{fill:#333333!important;stroke:#333333!important;stroke-width:1;}#mermaid-svg #dependencyStart,#mermaid-svg .dependency{fill:#333333!important;stroke:#333333!important;stroke-width:1;}#mermaid-svg #extensionStart,#mermaid-svg .extension{fill:transparent!important;stroke:#333333!important;stroke-width:1;}#mermaid-svg #extensionEnd,#mermaid-svg .extension{fill:transparent!important;stroke:#333333!important;stroke-width:1;}#mermaid-svg #aggregationStart,#mermaid-svg .aggregation{fill:transparent!important;stroke:#333333!important;stroke-width:1;}#mermaid-svg #aggregationEnd,#mermaid-svg .aggregation{fill:transparent!important;stroke:#333333!important;stroke-width:1;}#mermaid-svg #lollipopStart,#mermaid-svg .lollipop{fill:#ECECFF!important;stroke:#333333!important;stroke-width:1;}#mermaid-svg #lollipopEnd,#mermaid-svg .lollipop{fill:#ECECFF!important;stroke:#333333!important;stroke-width:1;}#mermaid-svg .edgeTerminals{font-size:11px;line-height:initial;}#mermaid-svg .classTitleText{text-anchor:middle;font-size:18px;fill:#333;}#mermaid-svg .label-icon{display:inline-block;height:1em;overflow:visible;vertical-align:-0.125em;}#mermaid-svg .node .label-icon path{fill:currentColor;stroke:revert;stroke-width:revert;}#mermaid-svg :root{--mermaid-font-family:"trebuchet ms",verdana,arial,sans-serif;}</style><g><defs><marker id="mermaid-svg_class-aggregationStart" class="marker aggregation class" refX="18" refY="7" markerWidth="190" markerHeight="240" orient="auto"><path d="M 18,7 L9,13 L1,7 L9,1 Z"/></marker></defs><defs><marker id="mermaid-svg_class-aggregationEnd" class="marker aggregation class" refX="1" refY="7" markerWidth="20" markerHeight="28" orient="auto"><path d="M 18,7 L9,13 L1,7 L9,1 Z"/></marker></defs><defs><marker id="mermaid-svg_class-extensionStart" class="marker extension class" refX="18" refY="7" markerWidth="190" markerHeight="240" orient="auto"><path d="M 1,7 L18,13 V 1 Z"/></marker></defs><defs><marker id="mermaid-svg_class-extensionEnd" class="marker extension class" refX="1" refY="7" markerWidth="20" markerHeight="28" orient="auto"><path d="M 1,1 V 13 L18,7 Z"/></marker></defs><defs><marker id="mermaid-svg_class-compositionStart" class="marker composition class" refX="18" refY="7" markerWidth="190" markerHeight="240" orient="auto"><path d="M 18,7 L9,13 L1,7 L9,1 Z"/></marker></defs><defs><marker id="mermaid-svg_class-compositionEnd" class="marker composition class" refX="1" refY="7" markerWidth="20" markerHeight="28" orient="auto"><path d="M 18,7 L9,13 L1,7 L9,1 Z"/></marker></defs><defs><marker id="mermaid-svg_class-dependencyStart" class="marker dependency class" refX="6" refY="7" markerWidth="190" markerHeight="240" orient="auto"><path d="M 5,7 L9,13 L1,7 L9,1 Z"/></marker></defs><defs><marker id="mermaid-svg_class-dependencyEnd" class="marker dependency class" refX="13" refY="7" markerWidth="20" markerHeight="28" orient="auto"><path d="M 18,7 L9,13 L14,7 L9,1 Z"/></marker></defs><defs><marker id="mermaid-svg_class-lollipopStart" class="marker lollipop class" refX="13" refY="7" markerWidth="190" markerHeight="240" orient="auto"><circle stroke="black" fill="transparent" cx="7" cy="7" r="6"/></marker></defs><defs><marker id="mermaid-svg_class-lollipopEnd" class="marker lollipop class" refX="1" refY="7" markerWidth="190" markerHeight="240" orient="auto"><circle stroke="black" fill="transparent" cx="7" cy="7" r="6"/></marker></defs><g class="root"><g class="clusters"/><g class="edgePaths"><path d="M290.136,218L284.796,226.167C279.456,234.333,268.776,250.667,250.333,267.203C231.89,283.74,205.684,300.479,192.581,308.849L179.478,317.219" id="id_JobService_BullMQ_1" class=" edge-thickness-normal edge-pattern-solid relation" style=";;;" data-edge="true" data-et="edge" data-id="id_JobService_BullMQ_1" data-points="W3sieCI6MjkwLjEzNjIwNDA3NTE2ODksInkiOjIxOH0seyJ4IjoyNTguMDk1NzAzMTI1LCJ5IjoyNjd9LHsieCI6MTc0LjQyMTg3NSwieSI6MzIwLjQ0ODkxOTAwMDAxNTh9XQ==" marker-end="url(#mermaid-svg_class-dependencyEnd)"/><path d="M107.523,218L107.523,226.167C107.523,234.333,107.523,250.667,109.301,264.053C111.078,277.44,114.633,287.88,116.41,293.1L118.188,298.32" id="id_WorkerService_BullMQ_2" class=" edge-thickness-normal edge-pattern-solid relation" style=";;;" data-edge="true" data-et="edge" data-id="id_WorkerService_BullMQ_2" data-points="W3sieCI6MTA3LjUyMzQzNzUsInkiOjIxOH0seyJ4IjoxMDcuNTIzNDM3NSwieSI6MjY3fSx7IngiOjEyMC4xMjE0Mzk4NzM0MTc3MywieSI6MzA0fV0=" marker-end="url(#mermaid-svg_class-dependencyEnd)"/><path d="M613.859,230L613.859,236.167C613.859,242.333,613.859,254.667,612.082,266.053C610.305,277.44,606.75,287.88,604.973,293.1L603.195,298.32" id="id_AuthService_Prisma_3" class=" edge-thickness-normal edge-pattern-solid relation" style=";;;" data-edge="true" data-et="edge" data-id="id_AuthService_Prisma_3" data-points="W3sieCI6NjEzLjg1OTM3NSwieSI6MjMwfSx7IngiOjYxMy44NTkzNzUsInkiOjI2N30seyJ4Ijo2MDEuMjYxMzcyNjI2NTgyMywieSI6MzA0fV0=" marker-end="url(#mermaid-svg_class-dependencyEnd)"/><path d="M423.499,218L429.161,226.167C434.822,234.333,446.144,250.667,466.086,267.546C486.028,284.424,514.59,301.849,528.871,310.561L543.151,319.273" id="id_JobService_Prisma_4" class=" edge-thickness-normal edge-pattern-solid relation" style=";;;" data-edge="true" data-et="edge" data-id="id_JobService_Prisma_4" data-points="W3sieCI6NDIzLjQ5OTMwMDU3MDEwMTM1LCJ5IjoyMTh9LHsieCI6NDU3LjQ2Njc5Njg3NSwieSI6MjY3fSx7IngiOjU0OC4yNzM0Mzc1LCJ5IjozMjIuMzk4MDYzMzc3NjI2M31d" marker-end="url(#mermaid-svg_class-dependencyEnd)"/></g><g class="edgeLabels"><g class="edgeLabel" transform="translate(258.095703125, 267)"><g class="label" data-id="id_JobService_BullMQ_1" transform="translate(-16.8984375, -12)"><foreignObject width="33.796875" height="24"><div xmlns="http://www.w3.org/1999/xhtml" class="labelBkg" style="display: table-cell; white-space: nowrap; line-height: 1.5; max-width: 200px; text-align: center;"><span class="edgeLabel "><p>uses</p></span></div></foreignObject></g></g><g class="edgeLabel" transform="translate(107.5234375, 267)"><g class="label" data-id="id_WorkerService_BullMQ_2" transform="translate(-16.8984375, -12)"><foreignObject width="33.796875" height="24"><div xmlns="http://www.w3.org/1999/xhtml" class="labelBkg" style="display: table-cell; white-space: nowrap; line-height: 1.5; max-width: 200px; text-align: center;"><span class="edgeLabel "><p>uses</p></span></div></foreignObject></g></g><g class="edgeLabel" transform="translate(613.859375, 267)"><g class="label" data-id="id_AuthService_Prisma_3" transform="translate(-16.8984375, -12)"><foreignObject width="33.796875" height="24"><div xmlns="http://www.w3.org/1999/xhtml" class="labelBkg" style="display: table-cell; white-space: nowrap; line-height: 1.5; max-width: 200px; text-align: center;"><span class="edgeLabel "><p>uses</p></span></div></foreignObject></g></g><g class="edgeLabel" transform="translate(477.42108, 279.17343)"><g class="label" data-id="id_JobService_Prisma_4" transform="translate(-16.8984375, -12)"><foreignObject width="33.796875" height="24"><div xmlns="http://www.w3.org/1999/xhtml" class="labelBkg" style="display: table-cell; white-space: nowrap; line-height: 1.5; max-width: 200px; text-align: center;"><span class="edgeLabel "><p>uses</p></span></div></foreignObject></g></g></g><g class="nodes"><g class="node default " id="classId-JobService-0" transform="translate(354.87109375, 119)"><g class="basic label-container"><path d="M-97.82421875 -99 L97.82421875 -99 L97.82421875 99 L-97.82421875 99" stroke="none" stroke-width="0" fill="#ECECFF" style=""/><path d="M-97.82421875 -99 C-47.99173664815789 -99, 1.840745453684221 -99, 97.82421875 -99 M-97.82421875 -99 C-39.10641158262574 -99, 19.61139558474852 -99, 97.82421875 -99 M97.82421875 -99 C97.82421875 -42.664472716844074, 97.82421875 13.671054566311852, 97.82421875 99 M97.82421875 -99 C97.82421875 -20.45918699501297, 97.82421875 58.08162600997406, 97.82421875 99 M97.82421875 99 C34.83081811241572 99, -28.16258252516856 99, -97.82421875 99 M97.82421875 99 C27.291769825722312 99, -43.240679098555376 99, -97.82421875 99 M-97.82421875 99 C-97.82421875 43.605546994465215, -97.82421875 -11.788906011069571, -97.82421875 -99 M-97.82421875 99 C-97.82421875 40.21541297403308, -97.82421875 -18.569174051933842, -97.82421875 -99" stroke="#9370DB" stroke-width="1.3" fill="none" stroke-dasharray="0 0" style=""/></g><g class="annotation-group text" transform="translate(0, -75)"/><g class="label-group text" transform="translate(-42.6953125, -75)"><g class="label" style="font-weight: bolder" transform="translate(0,-12)"><foreignObject width="85.390625" height="24"><div xmlns="http://www.w3.org/1999/xhtml" style="display: table-cell; white-space: nowrap; line-height: 1.5; max-width: 120px; text-align: center;"><span class="nodeLabel markdown-node-label" style=""><p>JobService</p></span></div></foreignObject></g></g><g class="members-group text" transform="translate(-85.82421875, -27)"/><g class="methods-group text" transform="translate(-85.82421875, 3)"><g class="label" style="" transform="translate(0,-12)"><foreignObject width="113.4375" height="24"><div xmlns="http://www.w3.org/1999/xhtml" style="display: table-cell; white-space: nowrap; line-height: 1.5; max-width: 154px; text-align: center;"><span class="nodeLabel markdown-node-label" style=""><p>+enqueue(data)</p></span></div></foreignObject></g><g class="label" style="" transform="translate(0,12)"><foreignObject width="86.703125" height="24"><div xmlns="http://www.w3.org/1999/xhtml" style="display: table-cell; white-space: nowrap; line-height: 1.5; max-width: 138px; text-align: center;"><span class="nodeLabel markdown-node-label" style=""><p>+retry(jobId)</p></span></div></foreignObject></g><g class="label" style="" transform="translate(0,36)"><foreignObject width="100.953125" height="24"><div xmlns="http://www.w3.org/1999/xhtml" style="display: table-cell; white-space: nowrap; line-height: 1.5; max-width: 149px; text-align: center;"><span class="nodeLabel markdown-node-label" style=""><p>+cancel(jobId)</p></span></div></foreignObject></g><g class="label" style="" transform="translate(0,60)"><foreignObject width="128.953125" height="24"><div xmlns="http://www.w3.org/1999/xhtml" style="display: table-cell; white-space: nowrap; line-height: 1.5; max-width: 173px; text-align: center;"><span class="nodeLabel markdown-node-label" style=""><p>-validatePayload()</p></span></div></foreignObject></g></g><g class="divider" style=""><path d="M-97.82421875 -51 C-49.206442800724986 -51, -0.5886668514499718 -51, 97.82421875 -51 M-97.82421875 -51 C-31.37069733857095 -51, 35.0828240728581 -51, 97.82421875 -51" stroke="#9370DB" stroke-width="1.3" fill="none" stroke-dasharray="0 0" style=""/></g><g class="divider" style=""><path d="M-97.82421875 -27 C-42.22619433645303 -27, 13.371830077093946 -27, 97.82421875 -27 M-97.82421875 -27 C-42.85962319786316 -27, 12.104972354273684 -27, 97.82421875 -27" stroke="#9370DB" stroke-width="1.3" fill="none" stroke-dasharray="0 0" style=""/></g></g><g class="node default " id="classId-AuthService-1" transform="translate(613.859375, 119)"><g class="basic label-container"><path d="M-111.1640625 -111 L111.1640625 -111 L111.1640625 111 L-111.1640625 111" stroke="none" stroke-width="0" fill="#ECECFF" style=""/><path d="M-111.1640625 -111 C-31.3078840361744 -111, 48.5482944276512 -111, 111.1640625 -111 M-111.1640625 -111 C-52.28256486735064 -111, 6.598932765298727 -111, 111.1640625 -111 M111.1640625 -111 C111.1640625 -54.37407337324512, 111.1640625 2.251853253509765, 111.1640625 111 M111.1640625 -111 C111.1640625 -22.665657331419553, 111.1640625 65.6686853371609, 111.1640625 111 M111.1640625 111 C37.13436905506735 111, -36.895324389865294 111, -111.1640625 111 M111.1640625 111 C51.0899814964825 111, -8.984099507034998 111, -111.1640625 111 M-111.1640625 111 C-111.1640625 23.09711549210195, -111.1640625 -64.8057690157961, -111.1640625 -111 M-111.1640625 111 C-111.1640625 41.67706825594631, -111.1640625 -27.64586348810738, -111.1640625 -111" stroke="#9370DB" stroke-width="1.3" fill="none" stroke-dasharray="0 0" style=""/></g><g class="annotation-group text" transform="translate(0, -87)"/><g class="label-group text" transform="translate(-46.6875, -87)"><g class="label" style="font-weight: bolder" transform="translate(0,-12)"><foreignObject width="93.375" height="24"><div xmlns="http://www.w3.org/1999/xhtml" style="display: table-cell; white-space: nowrap; line-height: 1.5; max-width: 130px; text-align: center;"><span class="nodeLabel markdown-node-label" style=""><p>AuthService</p></span></div></foreignObject></g></g><g class="members-group text" transform="translate(-99.1640625, -39)"/><g class="methods-group text" transform="translate(-99.1640625, -9)"><g class="label" style="" transform="translate(0,-12)"><foreignObject width="131.1875" height="24"><div xmlns="http://www.w3.org/1999/xhtml" style="display: table-cell; white-space: nowrap; line-height: 1.5; max-width: 176px; text-align: center;"><span class="nodeLabel markdown-node-label" style=""><p>+login(credentials)</p></span></div></foreignObject></g><g class="label" style="" transform="translate(0,12)"><foreignObject width="104.5" height="24"><div xmlns="http://www.w3.org/1999/xhtml" style="display: table-cell; white-space: nowrap; line-height: 1.5; max-width: 149px; text-align: center;"><span class="nodeLabel markdown-node-label" style=""><p>+register(data)</p></span></div></foreignObject></g><g class="label" style="" transform="translate(0,36)"><foreignObject width="151.640625" height="24"><div xmlns="http://www.w3.org/1999/xhtml" style="display: table-cell; white-space: nowrap; line-height: 1.5; max-width: 194px; text-align: center;"><span class="nodeLabel markdown-node-label" style=""><p>+refreshToken(token)</p></span></div></foreignObject></g><g class="label" style="" transform="translate(0,60)"><foreignObject width="120.9375" height="24"><div xmlns="http://www.w3.org/1999/xhtml" style="display: table-cell; white-space: nowrap; line-height: 1.5; max-width: 161px; text-align: center;"><span class="nodeLabel markdown-node-label" style=""><p>-hashPassword()</p></span></div></foreignObject></g><g class="label" style="" transform="translate(0,84)"><foreignObject width="122.703125" height="24"><div xmlns="http://www.w3.org/1999/xhtml" style="display: table-cell; white-space: nowrap; line-height: 1.5; max-width: 170px; text-align: center;"><span class="nodeLabel markdown-node-label" style=""><p>-verifySignature()</p></span></div></foreignObject></g></g><g class="divider" style=""><path d="M-111.1640625 -63 C-22.77975590901532 -63, 65.60455068196936 -63, 111.1640625 -63 M-111.1640625 -63 C-64.57081308583744 -63, -17.9775636716749 -63, 111.1640625 -63" stroke="#9370DB" stroke-width="1.3" fill="none" stroke-dasharray="0 0" style=""/></g><g class="divider" style=""><path d="M-111.1640625 -39 C-25.976241436567506 -39, 59.21157962686499 -39, 111.1640625 -39 M-111.1640625 -39 C-57.79230781176532 -39, -4.420553123530638 -39, 111.1640625 -39" stroke="#9370DB" stroke-width="1.3" fill="none" stroke-dasharray="0 0" style=""/></g></g><g class="node default " id="classId-WorkerService-2" transform="translate(107.5234375, 119)"><g class="basic label-container"><path d="M-99.5234375 -99 L99.5234375 -99 L99.5234375 99 L-99.5234375 99" stroke="none" stroke-width="0" fill="#ECECFF" style=""/><path d="M-99.5234375 -99 C-57.33895180836585 -99, -15.154466116731697 -99, 99.5234375 -99 M-99.5234375 -99 C-37.85073980627296 -99, 23.821957887454076 -99, 99.5234375 -99 M99.5234375 -99 C99.5234375 -34.85882198884232, 99.5234375 29.282356022315355, 99.5234375 99 M99.5234375 -99 C99.5234375 -38.70351858062864, 99.5234375 21.59296283874272, 99.5234375 99 M99.5234375 99 C29.752209153444213 99, -40.019019193111575 99, -99.5234375 99 M99.5234375 99 C30.360570278935796 99, -38.80229694212841 99, -99.5234375 99 M-99.5234375 99 C-99.5234375 45.61464550176679, -99.5234375 -7.770708996466425, -99.5234375 -99 M-99.5234375 99 C-99.5234375 54.681271452269705, -99.5234375 10.36254290453941, -99.5234375 -99" stroke="#9370DB" stroke-width="1.3" fill="none" stroke-dasharray="0 0" style=""/></g><g class="annotation-group text" transform="translate(0, -75)"/><g class="label-group text" transform="translate(-55.890625, -75)"><g class="label" style="font-weight: bolder" transform="translate(0,-12)"><foreignObject width="111.78125" height="24"><div xmlns="http://www.w3.org/1999/xhtml" style="display: table-cell; white-space: nowrap; line-height: 1.5; max-width: 146px; text-align: center;"><span class="nodeLabel markdown-node-label" style=""><p>WorkerService</p></span></div></foreignObject></g></g><g class="members-group text" transform="translate(-87.5234375, -27)"/><g class="methods-group text" transform="translate(-87.5234375, 3)"><g class="label" style="" transform="translate(0,-12)"><foreignObject width="51.125" height="24"><div xmlns="http://www.w3.org/1999/xhtml" style="display: table-cell; white-space: nowrap; line-height: 1.5; max-width: 102px; text-align: center;"><span class="nodeLabel markdown-node-label" style=""><p>+start()</p></span></div></foreignObject></g><g class="label" style="" transform="translate(0,12)"><foreignObject width="50.25" height="24"><div xmlns="http://www.w3.org/1999/xhtml" style="display: table-cell; white-space: nowrap; line-height: 1.5; max-width: 101px; text-align: center;"><span class="nodeLabel markdown-node-label" style=""><p>+stop()</p></span></div></foreignObject></g><g class="label" style="" transform="translate(0,36)"><foreignObject width="108.046875" height="24"><div xmlns="http://www.w3.org/1999/xhtml" style="display: table-cell; white-space: nowrap; line-height: 1.5; max-width: 155px; text-align: center;"><span class="nodeLabel markdown-node-label" style=""><p>+reportHealth()</p></span></div></foreignObject></g><g class="label" style="" transform="translate(0,60)"><foreignObject width="119.15625" height="24"><div xmlns="http://www.w3.org/1999/xhtml" style="display: table-cell; white-space: nowrap; line-height: 1.5; max-width: 161px; text-align: center;"><span class="nodeLabel markdown-node-label" style=""><p>-processJob(job)</p></span></div></foreignObject></g></g><g class="divider" style=""><path d="M-99.5234375 -51 C-29.84021053156684 -51, 39.84301643686632 -51, 99.5234375 -51 M-99.5234375 -51 C-31.261352676219843 -51, 37.00073214756031 -51, 99.5234375 -51" stroke="#9370DB" stroke-width="1.3" fill="none" stroke-dasharray="0 0" style=""/></g><g class="divider" style=""><path d="M-99.5234375 -27 C-52.55648291943244 -27, -5.589528338864881 -27, 99.5234375 -27 M-99.5234375 -27 C-42.38825951538792 -27, 14.746918469224156 -27, 99.5234375 -27" stroke="#9370DB" stroke-width="1.3" fill="none" stroke-dasharray="0 0" style=""/></g></g><g class="node default " id="classId-BullMQ-3" transform="translate(134.421875, 346)"><g class="basic label-container"><path d="M-40 -42 L40 -42 L40 42 L-40 42" stroke="none" stroke-width="0" fill="#ECECFF" style=""/><path d="M-40 -42 C-13.507655966371736 -42, 12.984688067256528 -42, 40 -42 M-40 -42 C-10.154840848923648 -42, 19.690318302152704 -42, 40 -42 M40 -42 C40 -16.213917917184638, 40 9.572164165630724, 40 42 M40 -42 C40 -17.732978265083695, 40 6.534043469832611, 40 42 M40 42 C15.879398113172662 42, -8.241203773654675 42, -40 42 M40 42 C8.1400542107653 42, -23.7198915784694 42, -40 42 M-40 42 C-40 12.729954946673164, -40 -16.540090106653672, -40 -42 M-40 42 C-40 17.443476472277176, -40 -7.113047055445648, -40 -42" stroke="#9370DB" stroke-width="1.3" fill="none" stroke-dasharray="0 0" style=""/></g><g class="annotation-group text" transform="translate(0, -18)"/><g class="label-group text" transform="translate(-28, -18)"><g class="label" style="font-weight: bolder" transform="translate(0,-12)"><foreignObject width="56" height="24"><div xmlns="http://www.w3.org/1999/xhtml" style="display: table-cell; white-space: nowrap; line-height: 1.5; max-width: 104px; text-align: center;"><span class="nodeLabel markdown-node-label" style=""><p>BullMQ</p></span></div></foreignObject></g></g><g class="members-group text" transform="translate(-28, 30)"/><g class="methods-group text" transform="translate(-28, 60)"/><g class="divider" style=""><path d="M-40 6 C-9.611306881685984 6, 20.777386236628033 6, 40 6 M-40 6 C-18.024904069604275 6, 3.950191860791449 6, 40 6" stroke="#9370DB" stroke-width="1.3" fill="none" stroke-dasharray="0 0" style=""/></g><g class="divider" style=""><path d="M-40 24 C-17.64473514891129 24, 4.710529702177418 24, 40 24 M-40 24 C-13.141003710213397 24, 13.717992579573206 24, 40 24" stroke="#9370DB" stroke-width="1.3" fill="none" stroke-dasharray="0 0" style=""/></g></g><g class="node default " id="classId-Prisma-4" transform="translate(586.9609375, 346)"><g class="basic label-container"><path d="M-38.6875 -42 L38.6875 -42 L38.6875 42 L-38.6875 42" stroke="none" stroke-width="0" fill="#ECECFF" style=""/><path d="M-38.6875 -42 C-22.946921383421916 -42, -7.206342766843832 -42, 38.6875 -42 M-38.6875 -42 C-20.089003080184757 -42, -1.4905061603695131 -42, 38.6875 -42 M38.6875 -42 C38.6875 -19.070877162214327, 38.6875 3.8582456755713466, 38.6875 42 M38.6875 -42 C38.6875 -20.224287165982417, 38.6875 1.551425668035165, 38.6875 42 M38.6875 42 C21.46744254501009 42, 4.247385090020181 42, -38.6875 42 M38.6875 42 C20.003148981538697 42, 1.3187979630773938 42, -38.6875 42 M-38.6875 42 C-38.6875 22.143575104772637, -38.6875 2.287150209545274, -38.6875 -42 M-38.6875 42 C-38.6875 15.291856414752, -38.6875 -11.416287170495998, -38.6875 -42" stroke="#9370DB" stroke-width="1.3" fill="none" stroke-dasharray="0 0" style=""/></g><g class="annotation-group text" transform="translate(0, -18)"/><g class="label-group text" transform="translate(-26.6875, -18)"><g class="label" style="font-weight: bolder" transform="translate(0,-12)"><foreignObject width="53.375" height="24"><div xmlns="http://www.w3.org/1999/xhtml" style="display: table-cell; white-space: nowrap; line-height: 1.5; max-width: 94px; text-align: center;"><span class="nodeLabel markdown-node-label" style=""><p>Prisma</p></span></div></foreignObject></g></g><g class="members-group text" transform="translate(-26.6875, 30)"/><g class="methods-group text" transform="translate(-26.6875, 60)"/><g class="divider" style=""><path d="M-38.6875 6 C-14.093324736110265 6, 10.50085052777947 6, 38.6875 6 M-38.6875 6 C-10.436546758458014 6, 17.81440648308397 6, 38.6875 6" stroke="#9370DB" stroke-width="1.3" fill="none" stroke-dasharray="0 0" style=""/></g><g class="divider" style=""><path d="M-38.6875 24 C-22.307952263153172 24, -5.928404526306345 24, 38.6875 24 M-38.6875 24 C-16.57044420496833 24, 5.546611590063343 24, 38.6875 24" stroke="#9370DB" stroke-width="1.3" fill="none" stroke-dasharray="0 0" style=""/></g></g></g></g></g></svg>